<?xml version="1.0" encoding="utf-8"?>
<!-- Generator: Adobe Illustrator 16.0.0, SVG Export Plug-In . SVG Version: 6.00 Build 0)  -->
<!DOCTYPE svg PUBLIC "-//W3C//DTD SVG 1.1//EN" "http://www.w3.org/Graphics/SVG/1.1/DTD/svg11.dtd">
<svg version="1.1" xmlns="http://www.w3.org/2000/svg" xmlns:xlink="http://www.w3.org/1999/xlink" x="0px" y="0px" width="1025px"
	 height="542px" viewBox="0 0 1025 542" enable-background="new 0 0 1025 542" xml:space="preserve">
<g id="Layer_1">
	<path fill="none" stroke="#62B9CC" stroke-linecap="round" stroke-linejoin="round" d="M527.072,248.727"/>
</g>
<g id="Layer_2">
	<g>
		<radialGradient id="SVGID_1_" cx="240.9058" cy="49.5142" r="9.2678" gradientUnits="userSpaceOnUse">
			<stop  offset="0" style="stop-color:#FFF588"/>
			<stop  offset="0.3132" style="stop-color:#FFF350"/>
			<stop  offset="1" style="stop-color:#FAA919"/>
		</radialGradient>
		<polygon fill="url(#SVGID_1_)" points="236.129,47.772 228.796,48.559 232.633,42.26 229.619,35.528 236.795,37.231 
			242.266,32.285 242.864,39.635 249.259,43.31 242.453,46.15 240.934,53.368 		"/>
		<path fill="#D88119" d="M241.85,33.335l0.494,6.078l0.042,0.524l0.456,0.262l5.289,3.039l-5.629,2.349l-0.485,0.203l-0.108,0.514
			l-1.256,5.969l-3.974-4.627l-0.343-0.399l-0.522,0.056l-6.064,0.65l3.173-5.208l0.273-0.449l-0.215-0.48l-2.492-5.567l5.935,1.408
			l0.512,0.121l0.39-0.353L241.85,33.335 M242.683,31.234l-6.027,5.449l-7.906-1.875l3.32,7.416l-4.228,6.939l8.079-0.866
			l5.294,6.165l1.673-7.952l7.499-3.129l-7.046-4.049L242.683,31.234L242.683,31.234z"/>
	</g>
	<g>
		<radialGradient id="SVGID_2_" cx="20.8818" cy="135.8755" r="9.8132" gradientUnits="userSpaceOnUse">
			<stop  offset="0" style="stop-color:#FFF588"/>
			<stop  offset="0.3132" style="stop-color:#FFF350"/>
			<stop  offset="1" style="stop-color:#FAA919"/>
		</radialGradient>
		<polygon fill="url(#SVGID_2_)" points="14.346,132.161 8.001,127.783 15.335,125.409 17.537,118.022 22.061,124.263 
			29.767,124.075 25.229,130.306 27.789,137.577 20.46,135.187 14.337,139.868 		"/>
		<path fill="#D88119" d="M17.726,119.136l3.775,5.208l0.309,0.426l0.525-0.013l6.431-0.157l-3.787,5.2l-0.31,0.425l0.174,0.496
			l2.137,6.067l-6.116-1.995l-0.5-0.163l-0.417,0.319l-5.109,3.907l0.007-6.432l0-0.525l-0.433-0.299l-5.295-3.653l6.12-1.981
			l0.5-0.162l0.15-0.504L17.726,119.136 M17.347,116.908l-2.416,8.106l-8.047,2.605l6.962,4.803l-0.009,8.458l6.719-5.138
			l8.042,2.623l-2.81-7.979l4.98-6.837l-8.457,0.206L17.347,116.908L17.347,116.908z"/>
	</g>
	<g>
		<radialGradient id="SVGID_3_" cx="578.9482" cy="130.3164" r="5.0836" gradientUnits="userSpaceOnUse">
			<stop  offset="0" style="stop-color:#FFF588"/>
			<stop  offset="0.3132" style="stop-color:#FFF350"/>
			<stop  offset="1" style="stop-color:#FAA919"/>
		</radialGradient>
		<polygon fill="url(#SVGID_3_)" points="575.604,128.393 572.281,126.167 576.069,124.883 577.16,121.036 579.551,124.242 
			583.548,124.09 581.237,127.355 582.616,131.109 578.797,129.92 575.652,132.392 		"/>
		<path fill="#D88119" d="M577.365,122.146l1.628,2.183l0.314,0.421l0.525-0.02l2.722-0.103l-1.574,2.223l-0.304,0.429l0.182,0.493
			l0.938,2.557l-2.601-0.81l-0.502-0.156l-0.413,0.325l-2.141,1.683l-0.033-2.723l-0.007-0.526l-0.437-0.293l-2.263-1.516
			l2.58-0.874l0.497-0.169l0.144-0.506L577.365,122.146 M576.955,119.925l-1.295,4.569l-4.499,1.524l3.946,2.644l0.058,4.75
			l3.734-2.935l4.535,1.412l-1.638-4.458l2.744-3.877l-4.746,0.18L576.955,119.925L576.955,119.925z"/>
	</g>
	<g>
		<radialGradient id="SVGID_4_" cx="320.1831" cy="155.0269" r="3.4529" gradientUnits="userSpaceOnUse">
			<stop  offset="0" style="stop-color:#FFF588"/>
			<stop  offset="0.3132" style="stop-color:#FFF350"/>
			<stop  offset="1" style="stop-color:#FAA919"/>
		</radialGradient>
		<polygon fill="url(#SVGID_4_)" points="317.911,153.72 315.655,152.208 318.228,151.336 318.968,148.723 320.592,150.901 
			323.307,150.798 321.738,153.015 322.674,155.565 320.08,154.757 317.944,156.437 		"/>
		<path fill="#D88119" d="M319.173,149.834l0.861,1.155l0.314,0.421l0.525-0.02l1.44-0.054l-0.833,1.176l-0.304,0.429l0.182,0.493
			l0.497,1.353l-1.376-0.428l-0.502-0.157l-0.414,0.325l-1.133,0.891l-0.018-1.44l-0.007-0.526l-0.437-0.292l-1.196-0.802
			l1.365-0.462l0.498-0.169l0.143-0.506L319.173,149.834 M318.764,147.612l-0.945,3.335l-3.283,1.112l2.879,1.93l0.043,3.467
			l2.726-2.143l3.311,1.031l-1.195-3.254l2.003-2.83l-3.465,0.131L318.764,147.612L318.764,147.612z"/>
	</g>
	<g>
		<radialGradient id="SVGID_5_" cx="528.4961" cy="29.1348" r="9.778" gradientUnits="userSpaceOnUse">
			<stop  offset="0" style="stop-color:#FFF588"/>
			<stop  offset="0.3132" style="stop-color:#FFF350"/>
			<stop  offset="1" style="stop-color:#FAA919"/>
		</radialGradient>
		<polygon fill="url(#SVGID_5_)" points="522.063,25.435 515.671,21.152 522.957,18.684 525.056,11.282 529.654,17.45 
			537.343,17.159 532.897,23.438 535.551,30.66 528.204,28.373 522.156,33.128 		"/>
		<path fill="#D88119" d="M525.26,12.393l3.837,5.145l0.314,0.421l0.525-0.02l6.412-0.243l-3.708,5.238l-0.304,0.429l0.182,0.493
			l2.213,6.025l-6.128-1.908l-0.502-0.156l-0.413,0.325l-5.045,3.966l-0.078-6.417l-0.007-0.526l-0.437-0.292l-5.332-3.573
			l6.079-2.059l0.497-0.169l0.144-0.505L525.26,12.393 M524.851,10.171l-2.303,8.123l-7.997,2.709l7.015,4.7l0.104,8.443
			l6.638-5.219l8.063,2.51l-2.912-7.927l4.879-6.892l-8.438,0.32L524.851,10.171L524.851,10.171z"/>
	</g>
	<g>
		<radialGradient id="SVGID_6_" cx="102.5884" cy="67.0859" r="15.3072" gradientUnits="userSpaceOnUse">
			<stop  offset="0" style="stop-color:#FFF588"/>
			<stop  offset="0.3132" style="stop-color:#FFF350"/>
			<stop  offset="1" style="stop-color:#FAA919"/>
		</radialGradient>
		<polygon fill="url(#SVGID_6_)" points="92.517,61.293 82.512,54.589 93.919,50.725 97.205,39.138 104.403,48.793 116.438,48.337 
			109.48,58.167 113.633,69.473 102.133,65.893 92.665,73.336 		"/>
		<path fill="#D88119" d="M97.409,40.249l6.436,8.632l0.314,0.421l0.525-0.02l10.76-0.408l-6.221,8.789l-0.304,0.429l0.182,0.494
			l3.713,10.108l-10.282-3.201l-0.502-0.156l-0.414,0.325l-8.464,6.655L93.021,61.55l-0.006-0.526l-0.437-0.292l-8.946-5.994
			l10.199-3.455l0.498-0.169l0.143-0.505L97.409,40.249 M97,38.027l-3.49,12.309L81.392,54.44l10.629,7.122l0.157,12.794
			l10.058-7.908l12.217,3.803l-4.412-12.01l7.392-10.442l-12.785,0.484L97,38.027L97,38.027z"/>
	</g>
	<g>
		<radialGradient id="SVGID_7_" cx="513.0469" cy="187.3853" r="8.3133" gradientUnits="userSpaceOnUse">
			<stop  offset="0" style="stop-color:#FFF588"/>
			<stop  offset="0.3132" style="stop-color:#FFF350"/>
			<stop  offset="1" style="stop-color:#FAA919"/>
		</radialGradient>
		<polygon fill="url(#SVGID_7_)" points="507.576,184.239 502.143,180.598 508.338,178.499 510.122,172.206 514.031,177.45 
			520.568,177.203 516.789,182.542 519.045,188.681 512.799,186.737 507.656,190.78 		"/>
		<path fill="#D88119" d="M510.326,173.317l3.147,4.22l0.314,0.421l0.525-0.02l5.262-0.199l-3.043,4.298l-0.304,0.429l0.182,0.493
			l1.815,4.942l-5.027-1.565l-0.502-0.156l-0.413,0.325l-4.14,3.254l-0.064-5.265l-0.007-0.526l-0.437-0.292l-4.374-2.931
			l4.988-1.689l0.497-0.169l0.144-0.506L510.326,173.317 M509.917,171.095l-1.988,7.015l-6.906,2.34l6.057,4.059l0.09,7.291
			l5.732-4.507l6.962,2.167l-2.515-6.844l4.213-5.951l-7.286,0.275L509.917,171.095L509.917,171.095z"/>
	</g>
	<g>
		<radialGradient id="SVGID_8_" cx="350.5728" cy="81.7163" r="10.7178" gradientUnits="userSpaceOnUse">
			<stop  offset="0" style="stop-color:#FFF588"/>
			<stop  offset="0.3132" style="stop-color:#FFF350"/>
			<stop  offset="1" style="stop-color:#FAA919"/>
		</radialGradient>
		<polygon fill="url(#SVGID_8_)" points="344.576,78.157 336.454,76.127 343.007,70.916 342.428,62.565 349.41,67.186 
			357.173,64.055 354.934,72.121 360.312,78.538 351.95,78.902 347.508,86 		"/>
		<path fill="#D88119" d="M342.997,63.541l5.918,3.917l0.438,0.29l0.487-0.197l6.58-2.653l-1.897,6.836l-0.141,0.507l0.337,0.403
			l4.558,5.438l-7.087,0.31l-0.525,0.023l-0.279,0.445l-3.765,6.016l-2.486-6.647l-0.184-0.493l-0.51-0.127l-6.884-1.72l5.555-4.417
			l0.412-0.327l-0.037-0.525L342.997,63.541 M341.859,61.589l0.631,9.1l-7.141,5.678l8.85,2.212l3.195,8.545l4.84-7.733l9.111-0.398
			l-5.859-6.991l2.439-8.79l-8.459,3.412L341.859,61.589L341.859,61.589z"/>
	</g>
	<g>
		<radialGradient id="SVGID_9_" cx="163.6777" cy="172.4116" r="8.3063" gradientUnits="userSpaceOnUse">
			<stop  offset="0" style="stop-color:#FFF588"/>
			<stop  offset="0.3132" style="stop-color:#FFF350"/>
			<stop  offset="1" style="stop-color:#FAA919"/>
		</radialGradient>
		<polygon fill="url(#SVGID_9_)" points="159.436,170.987 152.844,171.913 156.121,166.117 153.204,160.133 159.729,161.458 
			164.519,156.835 165.273,163.449 171.151,166.576 165.094,169.339 163.936,175.896 		"/>
		<path fill="#D88119" d="M164.137,157.899l0.61,5.346l0.06,0.522l0.464,0.247l4.751,2.528l-4.896,2.233l-0.478,0.218l-0.092,0.518
			l-0.937,5.299l-3.637-3.967l-0.355-0.388l-0.521,0.073l-5.328,0.748l2.649-4.684l0.259-0.458l-0.23-0.473l-2.358-4.837
			l5.274,1.071l0.515,0.104l0.378-0.365L164.137,157.899 M164.9,155.772l-5.33,5.144l-7.26-1.474l3.246,6.659l-3.646,6.448
			l7.335-1.029l5.007,5.461l1.289-7.295l6.739-3.074l-6.54-3.479L164.9,155.772L164.9,155.772z"/>
	</g>
	<g>
		<radialGradient id="SVGID_10_" cx="-85.3477" cy="128.6489" r="11.5407" gradientUnits="userSpaceOnUse">
			<stop  offset="0" style="stop-color:#FFF588"/>
			<stop  offset="0.3132" style="stop-color:#FFF350"/>
			<stop  offset="1" style="stop-color:#FAA919"/>
		</radialGradient>
		<polygon fill="url(#SVGID_10_)" points="-91.386,126.166 -100.472,126.646 -95.324,119.142 -98.588,110.648 -89.861,113.225 
			-82.792,107.497 -82.546,116.592 -74.914,121.545 -83.488,124.59 -85.84,133.379 		"/>
		<path fill="#D88119" d="M-83.264,108.523l0.211,7.819l0.014,0.526l0.441,0.286l6.562,4.259l-7.371,2.618l-0.496,0.176
			l-0.136,0.508l-2.023,7.557l-4.768-6.202l-0.321-0.417l-0.525,0.028l-7.811,0.413l4.426-6.451l0.297-0.434l-0.188-0.491
			l-2.806-7.303l7.503,2.215l0.504,0.149l0.408-0.331L-83.264,108.523 M-82.319,106.471l-7.652,6.2l-9.447-2.789l3.533,9.194
			l-5.572,8.122l9.835-0.52l6.003,7.809l2.546-9.514l9.281-3.296l-8.261-5.362L-82.319,106.471L-82.319,106.471z"/>
	</g>
	<g>
		<radialGradient id="SVGID_11_" cx="75.5776" cy="236.5073" r="5.19" gradientUnits="userSpaceOnUse">
			<stop  offset="0" style="stop-color:#FFF588"/>
			<stop  offset="0.3132" style="stop-color:#FFF350"/>
			<stop  offset="1" style="stop-color:#FAA919"/>
		</radialGradient>
		<polygon fill="url(#SVGID_11_)" points="71.61,234.53 68.706,231.701 72.717,231.115 74.509,227.479 76.305,231.113 
			80.317,231.693 77.416,234.525 78.104,238.521 74.514,236.637 70.927,238.526 		"/>
		<path fill="#D88119" d="M74.509,228.609l1.231,2.49l0.233,0.471l0.521,0.075l2.75,0.397l-1.989,1.941l-0.376,0.368l0.089,0.518
			l0.472,2.737l-2.46-1.291l-0.466-0.244l-0.465,0.245l-2.458,1.294l0.468-2.738l0.088-0.518l-0.376-0.367l-1.991-1.938l2.75-0.402
			l0.52-0.076l0.232-0.472L74.509,228.609 M74.508,226.349l-2.123,4.31l-4.754,0.694l3.442,3.352l-0.81,4.736l4.251-2.239
			l4.255,2.232l-0.816-4.734l3.438-3.356l-4.755-0.688L74.508,226.349L74.508,226.349z"/>
	</g>
	<g>
		<radialGradient id="SVGID_12_" cx="740.0313" cy="77.2744" r="9.4197" gradientUnits="userSpaceOnUse">
			<stop  offset="0" style="stop-color:#FFF588"/>
			<stop  offset="0.3132" style="stop-color:#FFF350"/>
			<stop  offset="1" style="stop-color:#FAA919"/>
		</radialGradient>
		<polygon fill="url(#SVGID_12_)" points="735.567,75.993 728.174,77.508 731.469,70.718 727.742,64.155 735.218,65.189 
			740.309,59.618 741.634,67.048 748.507,70.167 741.851,73.724 741.006,81.224 		"/>
		<path fill="#D88119" d="M739.994,60.703l1.102,6.174l0.092,0.518l0.479,0.217l5.71,2.592l-5.53,2.955l-0.463,0.248l-0.06,0.522
			l-0.701,6.232l-4.52-4.347l-0.379-0.364l-0.516,0.105l-6.144,1.259l2.738-5.642l0.229-0.473l-0.26-0.457l-3.096-5.454l6.212,0.86
			l0.521,0.072l0.354-0.388L739.994,60.703 M740.623,58.533l-5.597,6.125l-8.219-1.137l4.097,7.215l-3.623,7.465l8.129-1.666
			l5.979,5.751l0.929-8.245l7.317-3.91l-7.556-3.43L740.623,58.533L740.623,58.533z"/>
	</g>
	<g>
		<radialGradient id="SVGID_13_" cx="620.2227" cy="72.7163" r="14.6977" gradientUnits="userSpaceOnUse">
			<stop  offset="0" style="stop-color:#FFF588"/>
			<stop  offset="0.3132" style="stop-color:#FFF350"/>
			<stop  offset="1" style="stop-color:#FAA919"/>
		</radialGradient>
		<polygon fill="url(#SVGID_13_)" points="613.532,70.881 602.091,73.451 607.01,62.806 601.029,52.721 612.674,54.11 
			620.417,45.305 622.695,56.808 633.462,61.453 623.226,67.172 622.136,78.847 		"/>
		<path fill="#D88119" d="M620.124,46.396l2.03,10.251l0.102,0.516l0.482,0.208l9.595,4.139l-9.122,5.097l-0.459,0.256l-0.049,0.523
			l-0.972,10.404l-7.666-7.099l-0.386-0.357l-0.513,0.115l-10.197,2.291l4.384-9.487l0.22-0.477l-0.268-0.453l-5.33-8.988
			l10.378,1.239l0.521,0.062l0.348-0.395L620.124,46.396 M620.711,44.214l-8.239,9.368l-12.39-1.479l6.363,10.731l-5.233,11.326
			l12.174-2.735l9.153,8.476l1.16-12.421l10.891-6.085l-11.455-4.942L620.711,44.214L620.711,44.214z"/>
	</g>
	<g>
		<radialGradient id="SVGID_14_" cx="702.5322" cy="181.7007" r="9.0377" gradientUnits="userSpaceOnUse">
			<stop  offset="0" style="stop-color:#FFF588"/>
			<stop  offset="0.3132" style="stop-color:#FFF350"/>
			<stop  offset="1" style="stop-color:#FAA919"/>
		</radialGradient>
		<polygon fill="url(#SVGID_14_)" points="697.474,178.7 690.626,176.988 696.151,172.593 695.663,165.551 701.551,169.447 
			708.098,166.806 706.211,173.608 710.744,179.02 703.692,179.328 699.946,185.313 		"/>
		<path fill="#D88119" d="M696.231,166.527l4.824,3.192l0.438,0.29l0.487-0.197l5.363-2.164l-1.546,5.572l-0.141,0.507l0.338,0.403
			l3.715,4.434l-5.778,0.252l-0.524,0.023l-0.279,0.446l-3.068,4.903l-2.026-5.417l-0.184-0.493l-0.511-0.127l-5.61-1.403l4.527-3.6
			l0.412-0.327l-0.036-0.525L696.231,166.527 M695.094,164.575l0.541,7.791l-6.113,4.861l7.576,1.895l2.735,7.315l4.144-6.621
			l7.802-0.341l-5.016-5.986l2.088-7.525l-7.243,2.922L695.094,164.575L695.094,164.575z"/>
	</g>
	<g>
		<radialGradient id="SVGID_15_" cx="453.5117" cy="143.4863" r="12.6004" gradientUnits="userSpaceOnUse">
			<stop  offset="0" style="stop-color:#FFF588"/>
			<stop  offset="0.3132" style="stop-color:#FFF350"/>
			<stop  offset="1" style="stop-color:#FAA919"/>
		</radialGradient>
		<polygon fill="url(#SVGID_15_)" points="445.221,138.718 436.984,133.199 446.375,130.019 449.078,120.481 455.004,128.429 
			464.912,128.053 459.184,136.145 462.602,145.451 453.136,142.504 445.343,148.632 		"/>
		<path fill="#D88119" d="M449.283,121.592l5.163,6.924l0.314,0.421l0.525-0.02l8.632-0.327l-4.991,7.05l-0.304,0.429l0.182,0.494
			l2.979,8.108l-8.248-2.567l-0.502-0.156l-0.413,0.325l-6.79,5.339l-0.106-8.638l-0.007-0.526l-0.437-0.292l-7.177-4.808
			l8.184-2.771l0.498-0.169l0.143-0.506L449.283,121.592 M448.874,119.37l-2.908,10.259l-10.102,3.421l8.859,5.936l0.132,10.665
			l8.383-6.592l10.183,3.169l-3.678-10.01l6.162-8.704l-10.657,0.404L448.874,119.37L448.874,119.37z"/>
	</g>
	<g>
		<radialGradient id="SVGID_16_" cx="382.1304" cy="211.7148" r="5.0832" gradientUnits="userSpaceOnUse">
			<stop  offset="0" style="stop-color:#FFF588"/>
			<stop  offset="0.3132" style="stop-color:#FFF350"/>
			<stop  offset="1" style="stop-color:#FAA919"/>
		</radialGradient>
		<polygon fill="url(#SVGID_16_)" points="378.786,209.791 375.463,207.566 379.251,206.282 380.342,202.435 382.733,205.64 
			386.729,205.489 384.418,208.753 385.798,212.508 381.979,211.319 378.834,213.791 		"/>
		<path fill="#D88119" d="M380.546,203.545l1.628,2.183l0.314,0.421l0.525-0.02l2.722-0.103l-1.574,2.223l-0.304,0.429l0.182,0.493
			l0.939,2.557l-2.601-0.81l-0.502-0.157l-0.414,0.325l-2.141,1.683l-0.033-2.724l-0.006-0.526l-0.437-0.293l-2.263-1.515
			l2.58-0.874l0.498-0.169l0.143-0.506L380.546,203.545 M380.137,201.324l-1.295,4.569l-4.499,1.524l3.946,2.643l0.058,4.75
			l3.734-2.936l4.535,1.412l-1.638-4.459l2.744-3.877l-4.746,0.18L380.137,201.324L380.137,201.324z"/>
	</g>
	<g>
		<radialGradient id="SVGID_17_" cx="635.6865" cy="215.6768" r="5.0836" gradientUnits="userSpaceOnUse">
			<stop  offset="0" style="stop-color:#FFF588"/>
			<stop  offset="0.3132" style="stop-color:#FFF350"/>
			<stop  offset="1" style="stop-color:#FAA919"/>
		</radialGradient>
		<polygon fill="url(#SVGID_17_)" points="632.343,213.753 629.02,211.528 632.808,210.244 633.898,206.396 636.29,209.602 
			640.286,209.451 637.976,212.715 639.354,216.47 635.535,215.281 632.391,217.752 		"/>
		<path fill="#D88119" d="M634.104,207.507l1.628,2.183l0.314,0.421l0.525-0.02l2.722-0.103l-1.574,2.223l-0.304,0.429l0.182,0.493
			l0.938,2.557l-2.601-0.81l-0.502-0.157l-0.413,0.325l-2.141,1.683l-0.033-2.724l-0.007-0.526l-0.437-0.293l-2.263-1.515
			l2.58-0.874l0.497-0.169l0.144-0.506L634.104,207.507 M633.693,205.286l-1.295,4.569l-4.499,1.524l3.946,2.643l0.058,4.75
			l3.734-2.936l4.535,1.412l-1.638-4.459l2.744-3.877l-4.746,0.18L633.693,205.286L633.693,205.286z"/>
	</g>
	<g>
		<radialGradient id="SVGID_18_" cx="875.2158" cy="37.2798" r="9.3928" gradientUnits="userSpaceOnUse">
			<stop  offset="0" style="stop-color:#FFF588"/>
			<stop  offset="0.3132" style="stop-color:#FFF350"/>
			<stop  offset="1" style="stop-color:#FAA919"/>
		</radialGradient>
		<polygon fill="url(#SVGID_18_)" points="871.82,36.635 864.814,38.942 867.244,31.978 862.886,26.029 870.26,26.189 
			874.571,20.205 876.698,27.267 883.722,29.519 877.663,33.723 877.691,41.099 		"/>
		<path fill="#D88119" d="M874.385,21.319l1.76,5.84l0.151,0.503l0.5,0.161l5.809,1.863l-5.011,3.476l-0.432,0.3l0.002,0.526
			l0.023,6.1l-4.855-3.691l-0.419-0.318l-0.499,0.165l-5.794,1.908l2.01-5.76l0.173-0.497l-0.311-0.424l-3.604-4.92l6.099,0.133
			l0.525,0.011l0.308-0.427L874.385,21.319 M874.758,19.091l-4.75,6.593l-8.124-0.176l4.802,6.554l-2.677,7.673l7.718-2.542
			l6.469,4.917l-0.031-8.126l6.675-4.631l-7.737-2.481L874.758,19.091L874.758,19.091z"/>
	</g>
	<g>
		<radialGradient id="SVGID_19_" cx="923.3604" cy="161.8765" r="3.4798" gradientUnits="userSpaceOnUse">
			<stop  offset="0" style="stop-color:#FFF588"/>
			<stop  offset="0.3132" style="stop-color:#FFF350"/>
			<stop  offset="1" style="stop-color:#FAA919"/>
		</radialGradient>
		<polygon fill="url(#SVGID_19_)" points="922.361,161.794 919.856,162.846 920.545,160.218 918.772,158.161 921.484,158.004 
			922.893,155.681 923.88,158.211 926.524,158.834 924.422,160.556 924.648,163.262 		"/>
		<path fill="#D88119" d="M922.795,156.807l0.523,1.341l0.191,0.49l0.511,0.121l1.403,0.33l-1.115,0.913l-0.406,0.333l0.044,0.524
			l0.119,1.435l-1.213-0.778l-0.442-0.284l-0.484,0.204l-1.328,0.558l0.365-1.394l0.133-0.508l-0.343-0.398l-0.94-1.091l1.438-0.083
			l0.525-0.03l0.272-0.45L922.795,156.807 M922.99,154.556l-1.797,2.965l-3.461,0.199l2.263,2.626l-0.879,3.354l3.196-1.342
			l2.918,1.874l-0.288-3.455l2.683-2.196l-3.375-0.794L922.99,154.556L922.99,154.556z"/>
	</g>
	<g>
		<radialGradient id="SVGID_20_" cx="998.4541" cy="54.0723" r="10.5031" gradientUnits="userSpaceOnUse">
			<stop  offset="0" style="stop-color:#FFF588"/>
			<stop  offset="0.3132" style="stop-color:#FFF350"/>
			<stop  offset="1" style="stop-color:#FAA919"/>
		</radialGradient>
		<polygon fill="url(#SVGID_20_)" points="992.025,50.109 984.734,45.994 992.437,42.711 994.097,34.506 999.601,40.815 
			1007.917,39.859 1003.615,47.041 1007.095,54.655 998.937,52.786 992.77,58.449 		"/>
		<path fill="#D88119" d="M994.386,35.598l4.665,5.348l0.346,0.396l0.522-0.06l7.048-0.811l-3.645,6.087l-0.271,0.451l0.219,0.478
			l2.948,6.454l-6.914-1.584l-0.513-0.118l-0.388,0.355l-5.227,4.8l-0.631-7.069l-0.047-0.523l-0.458-0.259l-6.179-3.487
			l6.527-2.782l0.484-0.206l0.104-0.516L994.386,35.598 M993.808,33.414l-1.809,8.94l-8.393,3.577l7.944,4.483l0.811,9.087
			l6.72-6.17l8.89,2.037l-3.791-8.297l4.687-7.826l-9.062,1.042L993.808,33.414L993.808,33.414z"/>
	</g>
	<g>
		<radialGradient id="SVGID_21_" cx="823.4512" cy="122.5859" r="8.5283" gradientUnits="userSpaceOnUse">
			<stop  offset="0" style="stop-color:#FFF588"/>
			<stop  offset="0.3132" style="stop-color:#FFF350"/>
			<stop  offset="1" style="stop-color:#FAA919"/>
		</radialGradient>
		<polygon fill="url(#SVGID_21_)" points="818.769,119.989 812.168,119.13 816.867,114.413 815.644,107.869 821.582,110.88 
			827.428,107.695 826.398,114.271 831.234,118.849 824.661,119.903 821.803,125.916 		"/>
		<path fill="#D88119" d="M826.776,108.619l-0.832,5.315l-0.081,0.52l0.382,0.361l3.909,3.7l-5.313,0.853l-0.52,0.083l-0.226,0.475
			l-2.311,4.86l-2.453-4.791l-0.239-0.468l-0.521-0.068l-5.335-0.695l3.798-3.813l0.372-0.373l-0.097-0.517l-0.989-5.289l4.8,2.434
			l0.469,0.238l0.462-0.252L826.776,108.619 M828.078,106.771l-6.505,3.544l-6.607-3.35l1.361,7.281l-5.229,5.249l7.345,0.957
			l3.376,6.595l3.181-6.69l7.313-1.174l-5.381-5.093L828.078,106.771L828.078,106.771z"/>
	</g>
	<g>
		<radialGradient id="SVGID_22_" cx="968.4814" cy="232.8877" r="5.1239" gradientUnits="userSpaceOnUse">
			<stop  offset="0" style="stop-color:#FFF588"/>
			<stop  offset="0.3132" style="stop-color:#FFF350"/>
			<stop  offset="1" style="stop-color:#FAA919"/>
		</radialGradient>
		<polygon fill="url(#SVGID_22_)" points="967.012,232.767 963.324,234.314 964.34,230.445 961.727,227.418 965.72,227.185 
			967.793,223.767 969.247,227.492 973.141,228.408 970.045,230.941 970.378,234.928 		"/>
		<path fill="#D88119" d="M967.695,224.892l0.99,2.537l0.191,0.49l0.512,0.12l2.651,0.624l-2.108,1.726l-0.406,0.333l0.044,0.523
			l0.226,2.714l-2.292-1.472l-0.442-0.284l-0.484,0.204l-2.512,1.054l0.691-2.634l0.134-0.509l-0.344-0.398l-1.779-2.062
			l2.721-0.159l0.524-0.03l0.272-0.449L967.695,224.892 M967.891,222.642l-2.462,4.06l-4.742,0.276l3.103,3.596l-1.206,4.595
			l4.38-1.839l3.997,2.566l-0.395-4.733l3.676-3.009l-4.624-1.088L967.891,222.642L967.891,222.642z"/>
	</g>
</g>
</svg>
